<?xml version="1.0" encoding="UTF-8"?>
<svg xmlns="http://www.w3.org/2000/svg" version="1.1" viewBox="0 0 397.4 397.4">
  <defs>
    <style>
      .cls-1 {
        fill: #0656a0;
      }

      .cls-2 {
        fill: #fff;
      }
    </style>
  </defs>
  <!-- Generator: Adobe Illustrator 28.7.1, SVG Export Plug-In . SVG Version: 1.2.0 Build 142)  -->
  <g>
    <g id="objects">
      <path class="cls-1" d="M397.4,198.7c0,109.7-88.9,198.7-198.7,198.7h0c-109.7,0-198.7-89-198.7-198.7h0C0,88.9,88.9,0,198.7,0h0c109.7,0,198.7,88.9,198.7,198.7h0Z"/>
      <circle class="cls-2" cx="128.3" cy="120" r="25.6"/>
      <rect class="cls-2" x="107" y="162.6" width="42.7" height="127.9" rx="1.9" ry="1.9"/>
      <path class="cls-2" d="M294.6,209.5v72.5c0,4.7-3.8,8.5-8.5,8.5h-25.6c-4.7,0-8.5-3.8-8.5-8.5v-59.7c0-11.8-9.6-21.3-21.3-21.3s-21.3,9.6-21.3,21.3v59.7c0,4.7-3.8,8.5-8.5,8.5h-25.6c-4.7,0-8.5-3.8-8.5-8.5v-110.9c0-4.7,3.8-8.5,8.5-8.5h25.6c4.7,0,8.5,3.8,8.5,8.5v5.5c8.5-11.1,22.6-18.2,38.4-18.2,23.5,0,46.9,17.1,46.9,51.2Z"/>
    </g>
  </g>
</svg>