<?xml version="1.0" encoding="UTF-8"?>
<svg xmlns="http://www.w3.org/2000/svg" version="1.1" viewBox="0 0 397.4 397.4">
  <defs>
    <style>
      .cls-1 { fill: #0656a0; }
      .cls-2 { fill: #fff; }
    </style>
  </defs>
  <g>
    <g id="objects">
      <path class="cls-1" d="M397.4,198.7c0,109.7-88.9,198.7-198.7,198.7h0c-109.7,0-198.7-89-198.7-198.7h0C0,88.9,88.9,0,198.7,0h0c109.7,0,198.7,88.9,198.7,198.7h0Z"/>
      <path class="cls-2" d="M290,107c-24-24-56-37-90-37c-70,0-127,57-127,127c0,22,6,44,18,63l-19,70l71-19c18,10,39,15,60,15c70,0,127-57,127-127c0-34-13-66-37-90zm-90,205c-19,0-38-5-54-15l-4-2l-40,11l11-39l-2-4c-11-17-17-38-17-59c0-60,49-109,109-109c29,0,56,11,77,32s32,48,32,77c0,60-49,109-109,109zm60-82c-3-2-19-9-22-11s-5-2-7,1s-9,11-11,13s-4,2-7,1s-13-5-24-15c-9-8-15-18-17-21s0-5,2-6s4-4,6-6s2-3,3-5s1-4,0-6s-7-17-10-24s-6-7-7-7h-6c-2,0-5,1-8,4s-11,11-11,27s12,32,13,34s23,36,56,50c8,3,14,5,19,7c8,3,15,2,21,1s13-5,15-11s2-10,1-11s-4-2-7-3z"/>
    </g>
  </g>
</svg>
