<?xml version="1.0" encoding="UTF-8"?>
<svg xmlns="http://www.w3.org/2000/svg" version="1.1" viewBox="0 0 397.4 397.4">
  <defs>
    <style>
      .cls-1 {
        fill: #0656a0;
      }

      .cls-2 {
        fill: #fff;
      }
    </style>
  </defs>
  <!-- Generator: Adobe Illustrator 28.7.1, SVG Export Plug-In . SVG Version: 1.2.0 Build 142)  -->
  <g>
    <g id="objects">
      <path class="cls-1" d="M397.4,198.7c0,109.7-88.9,198.7-198.7,198.7h0c-109.7,0-198.7-89-198.7-198.7h0C0,88.9,88.9,0,198.7,0h0c109.7,0,198.7,88.9,198.7,198.7h0Z"/>
      <path class="cls-2" d="M284.3,114.5H113.1c-16.9,0-30.6,13.7-30.6,30.6v107.1c0,16.9,13.7,30.6,30.6,30.6h171.2c16.9,0,30.6-13.7,30.6-30.6v-107.1c0-16.9-13.7-30.6-30.6-30.6ZM226.2,206.1l-47.6,23.8c-5.5,2.8-12-1.2-12-7.4v-47.6c0-6.1,6.5-10.1,12-7.4l47.6,23.8c6.1,3,6.1,11.7,0,14.8h0Z"/>
    </g>
  </g>
</svg>